<svg xmlns="http://www.w3.org/2000/svg" xmlns:xlink="http://www.w3.org/1999/xlink" width="500" zoomAndPan="magnify" viewBox="0 0 375 374.999991" height="500" preserveAspectRatio="xMidYMid meet" version="1.0"><defs><g/><clipPath id="7430332c8b"><path d="M 100.4375 159 L 274 159 L 274 242.347656 L 100.4375 242.347656 Z M 100.4375 159 " clip-rule="nonzero"/></clipPath><clipPath id="8f54557a65"><path d="M 274 168 L 274.4375 168 L 274.4375 169 L 274 169 Z M 274 168 " clip-rule="nonzero"/></clipPath><clipPath id="3237a3a548"><path d="M 267 151 L 274.4375 151 L 274.4375 159 L 267 159 Z M 267 151 " clip-rule="nonzero"/></clipPath><clipPath id="1aff4a5471"><path d="M 171 65.347656 L 180 65.347656 L 180 74 L 171 74 Z M 171 65.347656 " clip-rule="nonzero"/></clipPath></defs><path fill="#0a4570" d="M 142.175781 161.894531 C 143.742188 173.210938 147.339844 184.355469 153.609375 193.957031 C 154.109375 195.109375 156.21875 196.90625 155.953125 197.984375 C 154.679688 201.210938 150.949219 202.136719 148.113281 203.503906 C 133.386719 210.910156 138.253906 224.101562 154.273438 220.871094 C 157.566406 220.214844 158.394531 222.292969 161.515625 221.054688 C 163.949219 220.089844 167.191406 225.824219 169.625 224.855469 C 177.550781 224.453125 184.785156 231.425781 191.410156 234.878906 C 191.683594 232.40625 190.835938 226.128906 200.859375 223.816406 C 205.296875 222.792969 207.949219 214.738281 215.085938 213.792969 C 217.75 199.246094 193.261719 179.140625 178.328125 171.46875 C 158.578125 161.320312 177.359375 108.042969 144.898438 103.480469 C 135.667969 107.082031 136.027344 118.613281 138.078125 126.75 C 140.585938 139.617188 139.671875 149.027344 142.179688 161.894531 Z M 142.175781 161.894531 " fill-opacity="1" fill-rule="nonzero"/><path fill="#0086ff" d="M 169.929688 208.195312 C 166.574219 212.136719 151.269531 221.355469 138.824219 215.511719 C 138.09375 213.902344 138.007812 212.039062 138.550781 210.300781 C 141.019531 201.199219 132.359375 201.820312 133.046875 194.441406 C 133.089844 193.929688 132.902344 193.417969 132.535156 193.058594 C 127.96875 188.742188 131.101562 187.398438 131.054688 183.03125 C 130.308594 176.75 123.234375 177.28125 119.480469 173.238281 C 114.394531 165.945312 133.769531 158.261719 129.824219 137.980469 C 128.230469 127.839844 131.4375 117.519531 138.300781 109.921875 C 176.398438 132.160156 139.855469 150.792969 144.375 167.101562 C 149.25 184.695312 194.75 179.078125 169.929688 208.195312 Z M 169.929688 208.195312 " fill-opacity="1" fill-rule="nonzero"/><path fill="#2fc0f2" d="M 198.839844 218.003906 L 167.394531 223.816406 L 159 219.875 C 149.808594 224.195312 136.417969 220.871094 138.550781 210.300781 C 141.023438 201.210938 132.355469 201.816406 133.046875 194.445312 C 132.554688 191.53125 128.523438 190.960938 130.542969 186.171875 C 133.660156 178.136719 123.820312 177.398438 119.480469 173.242188 C 114.3125 166.113281 133.742188 158.308594 129.824219 137.980469 C 128.226562 127.835938 131.4375 117.519531 138.304688 109.921875 L 139.160156 110.429688 C 145.667969 108.914062 159.773438 118.714844 158.167969 141.542969 C 156.675781 173.292969 162.105469 174.347656 179.289062 182.03125 C 191.636719 187.554688 201.503906 202.125 198.839844 218 Z M 198.839844 218.003906 " fill-opacity="1" fill-rule="nonzero"/><path fill="#0a4570" d="M 189.351562 219.324219 C 189.042969 227.175781 187.238281 233.789062 187.679688 234.878906 C 187.855469 235.316406 187.988281 235.710938 188.085938 236.066406 C 186.207031 236.703125 184.339844 237.289062 182.484375 237.824219 C 179.097656 236.375 175.472656 233.984375 175.472656 233.84375 C 171.289062 226.902344 170.28125 225.304688 167.453125 223.71875 C 165.75 222.761719 163.382812 221.816406 159.261719 219.707031 C 159.261719 219.707031 182.570312 212.71875 186.722656 202.925781 C 189.074219 208.070312 189.5625 213.984375 189.351562 219.324219 Z M 189.351562 219.324219 " fill-opacity="0.3" fill-rule="nonzero"/><path fill="#ffffff" d="M 169.929688 208.195312 C 166.515625 212.96875 148.4375 221.125 138.824219 215.511719 C 138.09375 213.902344 138.007812 212.039062 138.550781 210.300781 C 141.03125 201.25 132.359375 201.796875 133.046875 194.441406 C 133.089844 193.929688 132.902344 193.417969 132.535156 193.058594 C 127.96875 188.738281 131.101562 187.402344 131.054688 183.03125 C 130.308594 176.75 123.234375 177.28125 119.480469 173.238281 C 114.390625 165.964844 133.773438 158.25 129.824219 137.980469 C 128.21875 127.824219 131.46875 117.476562 138.300781 109.921875 C 176.398438 132.160156 139.855469 150.792969 144.375 167.101562 C 149.25 184.695312 194.75 179.078125 169.929688 208.195312 Z M 169.929688 208.195312 " fill-opacity="0.4" fill-rule="nonzero"/><path fill="#ffffff" d="M 156.488281 211.601562 C 151.480469 216.777344 146.148438 219.214844 138.824219 215.511719 C 138.09375 213.902344 138.007812 212.039062 138.550781 210.300781 C 141.019531 201.199219 132.359375 201.820312 133.046875 194.445312 C 133.089844 193.929688 132.902344 193.421875 132.535156 193.058594 C 127.949219 188.691406 131.113281 187.421875 131.054688 183.03125 C 130.425781 176.867188 122.976562 177.109375 119.480469 173.242188 C 117.71875 170.824219 118.808594 168.320312 120.855469 165.273438 C 138.761719 143.027344 123.679688 139.175781 132.585938 118.558594 C 157.40625 138.507812 126.773438 155.492188 130.933594 170.5 C 135.808594 188.09375 181.316406 182.480469 156.488281 211.597656 Z M 156.488281 211.601562 " fill-opacity="0.3" fill-rule="nonzero"/><path fill="#ffffff" d="M 125.28125 176.769531 C 119.515625 174.476562 116.152344 171.605469 120.855469 165.273438 C 119.988281 169.65625 121.828125 173.957031 125.28125 176.769531 Z M 125.28125 176.769531 " fill-opacity="0.2" fill-rule="nonzero"/><path fill="#ffffff" d="M 129.824219 137.980469 C 129.222656 134.160156 129.304688 130.304688 130.011719 126.582031 C 133.800781 132.980469 132.777344 139.066406 130.304688 144.875 C 130.433594 142.746094 130.304688 140.457031 129.824219 137.980469 Z M 129.824219 137.980469 " fill-opacity="0.39" fill-rule="nonzero"/><path fill="#0a4570" d="M 146.609375 211.601562 C 144.515625 213.578125 142.617188 215.226562 140.550781 216.238281 C 139.996094 216.027344 139.421875 215.789062 138.828125 215.511719 C 138.09375 213.902344 138.011719 212.039062 138.550781 210.300781 C 141.023438 201.199219 132.363281 201.820312 133.050781 194.445312 C 133.09375 193.929688 132.902344 193.421875 132.535156 193.058594 C 126.777344 188.1875 133.632812 184.679688 129.808594 179.828125 C 143.460938 187.378906 165.585938 189.339844 146.609375 211.601562 Z M 146.609375 211.601562 " fill-opacity="0.05" fill-rule="nonzero"/><path fill="#0a4570" d="M 253.257812 144.992188 C 253.238281 146.140625 253.1875 147.285156 253.105469 148.4375 C 251.875 163.941406 246.066406 177.300781 237.433594 190.859375 C 235.351562 194.902344 231.382812 197.136719 231.527344 204.21875 L 229.628906 204.566406 C 229.324219 196.164062 233.949219 193.761719 236.484375 188.75 C 242.195312 179.605469 246.199219 171.144531 248.886719 161.386719 C 249.097656 160.601562 249.296875 159.820312 249.480469 159.042969 C 251.054688 152.339844 251.6875 145.792969 251.136719 139.035156 C 248.226562 99.269531 201.238281 78.054688 166.335938 91.34375 C 148.289062 98.679688 127.402344 115.402344 130.691406 137.246094 C 133.289062 153.648438 124.894531 160.367188 119.597656 169.320312 C 117.941406 176.246094 131.765625 174.777344 132.015625 182.917969 C 132.332031 187.085938 128.925781 188.484375 133.210938 192.367188 C 135.199219 194.90625 132.472656 197.304688 136.671875 200.4375 C 142.792969 205.84375 137.832031 210.484375 139.703125 215.113281 C 146.316406 225.828125 155.355469 216.992188 164.210938 221.25 C 164.210938 221.25 171.4375 224.640625 171.4375 224.640625 L 170.621094 226.390625 C 170.621094 226.390625 163.390625 223 163.390625 223 C 160.796875 221.785156 157.824219 221.480469 155.019531 222.140625 C 147.632812 223.910156 141.300781 221.851562 137.949219 215.910156 C 135.683594 211.25 140.53125 206.15625 135.515625 201.984375 C 133.371094 200.382812 132.214844 198.289062 132.066406 195.761719 C 131.929688 195.132812 132.332031 194.28125 131.859375 193.746094 C 129.890625 191.796875 128.742188 190.03125 129.128906 187.460938 C 129.382812 186.09375 130.378906 184.570312 130.097656 183.144531 C 129.507812 176.019531 114.878906 177.398438 117.828125 168.554688 C 118.476562 167.046875 119.683594 165.417969 121.085938 163.53125 C 137.578125 145.46875 119.773438 128.53125 137.585938 109.273438 C 151.316406 94.367188 167.558594 85.863281 187.207031 85.421875 C 220.972656 84.25 254.425781 109.351562 253.253906 144.988281 Z M 253.257812 144.992188 " fill-opacity="1" fill-rule="nonzero"/><path fill="#0086ff" d="M 216.113281 194.148438 C 216.113281 194.148438 202.664062 183.699219 202.664062 183.699219 C 202.65625 183.699219 186.886719 159.648438 186.871094 159.632812 C 183.71875 151.332031 177.972656 134.355469 175.546875 125.839844 L 174.832031 125.742188 L 175.308594 125.398438 L 163.433594 108.5625 L 152.585938 97.5625 L 153.222656 97.117188 L 164.027344 108.066406 C 164.046875 108.09375 175.910156 124.917969 175.933594 124.945312 L 195.941406 110.503906 L 198.222656 128.300781 L 201.988281 141.203125 C 207.472656 133.535156 217.941406 117.492188 222.875 109.410156 L 237.1875 127.683594 L 227.636719 137.191406 L 217.121094 151.683594 L 231.050781 165.894531 C 231.050781 165.894531 216.117188 194.148438 216.113281 194.148438 Z M 203.238281 183.171875 L 215.863281 192.976562 L 230.105469 166.035156 L 216.113281 151.765625 L 227.066406 136.671875 L 236.15625 127.625 L 222.941406 110.75 C 217.953125 118.976562 207.285156 135.136719 201.703125 142.984375 L 197.542969 128.730469 L 176.390625 125.949219 C 178.777344 134.347656 184.453125 151.097656 187.566406 159.285156 C 187.566406 159.285156 203.242188 183.167969 203.242188 183.167969 Z M 176.855469 125.234375 L 197.398438 127.9375 L 195.339844 111.890625 Z M 176.855469 125.234375 " fill-opacity="1" fill-rule="nonzero"/><path fill="#0086ff" d="M 202.355469 142.480469 L 179.886719 142.480469 L 198.046875 127.714844 Z M 182.0625 141.707031 L 201.328125 141.707031 L 197.632812 129.050781 Z M 182.0625 141.707031 " fill-opacity="1" fill-rule="nonzero"/><path fill="#0086ff" d="M 207.078125 166.546875 L 186.558594 159.648438 L 202.066406 141.230469 L 207.074219 166.546875 Z M 187.878906 159.273438 L 206.0625 165.390625 L 201.621094 142.957031 L 187.878906 159.277344 Z M 187.878906 159.273438 " fill-opacity="1" fill-rule="nonzero"/><path fill="#0086ff" d="M 216.640625 152.113281 L 216.589844 151.34375 L 240.128906 149.714844 L 227.070312 137.222656 L 227.601562 136.664062 L 241.921875 150.363281 Z M 216.640625 152.113281 " fill-opacity="1" fill-rule="nonzero"/><path fill="#0086ff" d="M 175.464844 125.433594 L 179.601562 98.527344 L 180.363281 98.644531 L 176.226562 125.550781 Z M 175.464844 125.433594 " fill-opacity="1" fill-rule="nonzero"/><path fill="#0086ff" d="M 238.710938 198.644531 L 215.695312 193.894531 L 206.660156 167.425781 L 203.328125 183.511719 L 202.574219 183.351562 L 206.296875 165.386719 L 204.3125 165.308594 L 216.035156 151.804688 L 200.84375 141.898438 L 226.375 136.738281 L 212.378906 126.992188 L 197.886719 128.761719 L 197.796875 127.996094 L 212.578125 126.1875 L 228.300781 137.136719 L 202.84375 142.277344 L 217.195312 151.636719 L 205.949219 164.59375 L 206.457031 164.613281 L 206.480469 164.496094 L 206.519531 164.617188 L 230.882812 165.585938 L 238.710938 198.636719 Z M 216.28125 193.226562 L 237.679688 197.644531 L 230.265625 166.339844 L 206.785156 165.40625 Z M 216.28125 193.226562 " fill-opacity="1" fill-rule="nonzero"/><path fill="#0086ff" d="M 256.886719 170.28125 L 229.921875 166.261719 L 240.621094 149.960938 L 236.351562 128.027344 L 212.324219 126.976562 C 204.660156 119.632812 188.503906 105.496094 180.074219 99.152344 L 180 99.269531 L 179.875 99.09375 L 163.171875 109.097656 L 168.820312 82.4375 L 179.960938 97.894531 L 191.363281 79.980469 L 206.988281 97.6875 L 196.171875 111.15625 L 212.640625 126.214844 L 236.992188 127.277344 L 241.4375 150.113281 L 231.234375 165.667969 L 257.003906 169.507812 C 257.003906 169.507812 256.894531 170.269531 256.890625 170.277344 Z M 180.488281 98.5 L 195.121094 110.289062 L 191.167969 81.714844 Z M 191.964844 81.835938 L 195.894531 110.257812 L 205.972656 97.71875 Z M 169.210938 84.304688 L 164.285156 107.53125 L 179.417969 98.46875 Z M 169.210938 84.304688 " fill-opacity="1" fill-rule="nonzero"/><path fill="#0a4570" d="M 248.878906 114.105469 L 248.492188 113.597656 L 249.742188 112.257812 C 250.070312 112.5625 250.820312 113.265625 251.152344 113.578125 C 251.007812 113.730469 249.644531 115.195312 249.460938 115.390625 Z M 248.878906 114.105469 " fill-opacity="0.4" fill-rule="nonzero"/><path fill="#0a4570" d="M 259.035156 146.414062 C 259.050781 146.367188 258.984375 145.953125 258.976562 145.894531 L 260.15625 146.929688 L 259.015625 147.171875 Z M 259.035156 146.414062 " fill-opacity="0.4" fill-rule="nonzero"/><path fill="#0086ff" d="M 256.644531 170.136719 L 240.332031 149.792969 L 257.238281 146.171875 L 236.117188 127.683594 L 249.769531 113.078125 L 250.332031 113.605469 L 237.222656 127.628906 L 258.902344 146.601562 L 241.71875 150.289062 L 257.246094 169.65625 Z M 256.644531 170.136719 " fill-opacity="1" fill-rule="nonzero"/><path fill="#0086ff" d="M 236.6875 128.039062 L 236.648438 127.273438 L 255.390625 126.234375 L 255.429688 127 Z M 236.6875 128.039062 " fill-opacity="1" fill-rule="nonzero"/><path fill="#0086ff" d="M 206.25 98.015625 L 206.710938 97.398438 L 223.136719 109.773438 L 222.675781 110.390625 Z M 206.25 98.015625 " fill-opacity="1" fill-rule="nonzero"/><path fill="#0086ff" d="M 195.617188 110.8125 L 222.453125 109.367188 L 222.492188 110.136719 L 195.660156 111.582031 Z M 195.617188 110.8125 " fill-opacity="1" fill-rule="nonzero"/><path fill="#0a4570" d="M 223.871094 88.320312 L 223.871094 91.261719 L 222.136719 90.039062 L 221.941406 90.148438 L 221.941406 88.320312 Z M 223.871094 88.320312 " fill-opacity="0.4" fill-rule="nonzero"/><path fill="#0086ff" d="M 222.519531 88.902344 L 223.289062 88.902344 L 223.289062 110.082031 L 222.519531 110.082031 Z M 222.519531 88.902344 " fill-opacity="1" fill-rule="nonzero"/><path fill="#0a4570" d="M 241.253906 101.867188 C 241.253906 101.867188 239.910156 102.546875 239.910156 102.550781 L 239.21875 102.066406 L 239.414062 100.632812 C 239.625 100.527344 240.179688 100.246094 240.382812 100.144531 C 240.636719 100.648438 241 101.363281 241.253906 101.867188 Z M 241.253906 101.867188 " fill-opacity="0.4" fill-rule="nonzero"/><path fill="#0086ff" d="M 222.730469 109.742188 L 240.125 100.929688 L 240.476562 101.617188 L 223.078125 110.429688 Z M 222.730469 109.742188 " fill-opacity="1" fill-rule="nonzero"/><path fill="#0a4570" d="M 241.253906 101.867188 C 241.253906 101.867188 239.910156 102.546875 239.910156 102.550781 L 239.21875 102.066406 C 239.285156 101.585938 239.449219 100.375 239.515625 99.910156 L 240.074219 100.304688 L 240.386719 100.148438 L 240.679688 100.734375 L 241.019531 100.972656 L 240.890625 101.152344 C 240.890625 101.152344 241.253906 101.871094 241.253906 101.871094 Z M 241.253906 101.867188 " fill-opacity="0.4" fill-rule="nonzero"/><path fill="#0a4570" d="M 250.886719 113.859375 L 249.457031 115.386719 C 249.28125 114.980469 248.816406 113.890625 248.488281 113.59375 L 249.738281 112.253906 C 249.945312 112.4375 250.410156 112.875 250.546875 113.105469 C 250.546875 113.105469 250.886719 113.859375 250.886719 113.859375 Z M 250.886719 113.859375 " fill-opacity="0.4" fill-rule="nonzero"/><path fill="#0086ff" d="M 238.511719 198.363281 L 237.875 197.925781 L 257.089844 170.054688 L 257.683594 146.410156 L 254.722656 125.597656 L 249.378906 113.804688 L 240.554688 102.242188 L 237.046875 127.707031 L 236.28125 127.601562 L 240.039062 100.296875 C 240.058594 100.335938 250.058594 113.398438 250.058594 113.445312 C 250.058594 113.445312 255.472656 125.378906 255.472656 125.378906 C 255.484375 125.410156 258.4375 146.320312 258.453125 146.363281 C 258.449219 146.390625 257.851562 170.269531 257.851562 170.304688 C 257.816406 170.351562 238.554688 198.296875 238.507812 198.363281 Z M 238.511719 198.363281 " fill-opacity="1" fill-rule="nonzero"/><path fill="#0a4570" d="M 223.871094 88.898438 L 223.871094 91.261719 L 222.136719 90.039062 L 221.941406 90.148438 L 221.941406 88.320312 L 223.046875 88.320312 Z M 223.871094 88.898438 " fill-opacity="0.4" fill-rule="nonzero"/><path fill="#0a4570" d="M 241.019531 100.972656 L 240.890625 101.148438 C 240.890625 101.148438 239.910156 102.550781 239.90625 102.550781 L 239.21875 102.066406 C 239.285156 101.585938 239.449219 100.375 239.515625 99.910156 C 239.953125 100.21875 240.585938 100.664062 241.019531 100.972656 Z M 241.019531 100.972656 " fill-opacity="0.4" fill-rule="nonzero"/><path fill="#0086ff" d="M 239.765625 101.746094 L 222.167969 89.355469 L 206.667969 98.042969 L 206.292969 97.367188 L 222.214844 88.445312 L 240.210938 101.109375 Z M 239.765625 101.746094 " fill-opacity="1" fill-rule="nonzero"/><path fill="#0086ff" d="M 152.757812 97.742188 L 147.40625 93.765625 C 147.40625 93.765625 168.898438 83 168.898438 83 L 191.4375 80.230469 C 191.554688 80.230469 222.183594 88.523438 222.292969 88.53125 L 222.09375 89.277344 L 191.378906 81.019531 L 169.125 83.753906 L 148.875 93.894531 L 153.21875 97.121094 Z M 152.757812 97.742188 " fill-opacity="1" fill-rule="nonzero"/><path fill="#0a4570" d="M 153.710938 220.453125 C 164.539062 217.335938 175.988281 213.847656 184.554688 206.199219 C 176.335938 214.394531 164.988281 218.546875 154.226562 222.3125 L 153.707031 220.453125 Z M 153.710938 220.453125 " fill-opacity="1" fill-rule="nonzero"/><g clip-path="url(#7430332c8b)"><path fill="#2fc0f2" d="M 273.875 169.160156 C 265.199219 181.355469 255.476562 192.234375 245.53125 201.277344 C 226.746094 218.332031 206.886719 229.699219 188.085938 236.066406 C 186.207031 236.703125 184.339844 237.289062 182.484375 237.824219 C 122.488281 255.207031 75.820312 221.132812 114.742188 159.046875 C 85.621094 213.863281 121.453125 229.878906 167.453125 223.71875 C 174.578125 222.765625 181.945312 221.277344 189.351562 219.324219 C 223.097656 210.414062 257.683594 191.746094 273.875 169.160156 Z M 273.875 169.160156 " fill-opacity="1" fill-rule="nonzero"/></g><g clip-path="url(#8f54557a65)"><path fill="#0a4570" d="M 274.40625 168.40625 C 274.40625 168.40625 274.402344 168.414062 274.402344 168.417969 C 274.402344 168.414062 274.402344 168.410156 274.40625 168.40625 Z M 274.40625 168.40625 " fill-opacity="0.3" fill-rule="nonzero"/></g><path fill="#fe2860" d="M 175.839844 120.90625 C 181.863281 121.007812 181.859375 129.972656 175.839844 130.074219 C 169.820312 129.972656 169.824219 121.007812 175.839844 120.90625 Z M 175.839844 120.90625 " fill-opacity="0.2" fill-rule="nonzero"/><path fill="#fe2860" d="M 175.839844 128.910156 C 171.367188 128.886719 171.367188 122.085938 175.839844 122.0625 C 180.316406 122.085938 180.316406 128.886719 175.839844 128.910156 Z M 175.839844 128.910156 " fill-opacity="0.4" fill-rule="nonzero"/><path fill="#fe2860" d="M 175.839844 127.753906 C 172.902344 127.796875 172.90625 123.183594 175.839844 123.222656 C 178.777344 123.183594 178.777344 127.796875 175.839844 127.753906 Z M 175.839844 127.753906 " fill-opacity="0.6" fill-rule="nonzero"/><path fill="#ffffff" d="M 175.839844 126.597656 C 174.402344 126.617188 174.402344 124.359375 175.839844 124.378906 C 177.277344 124.359375 177.277344 126.617188 175.839844 126.597656 Z M 175.839844 126.597656 " fill-opacity="1" fill-rule="nonzero"/><path fill="#fe2860" d="M 197.839844 126.117188 C 200.777344 126.074219 200.777344 130.691406 197.839844 130.648438 C 194.902344 130.6875 194.902344 126.070312 197.839844 126.117188 Z M 197.839844 126.117188 " fill-opacity="0.2" fill-rule="nonzero"/><path fill="#fe2860" d="M 197.839844 130.078125 C 195.644531 130.109375 195.644531 126.660156 197.839844 126.6875 C 200.035156 126.660156 200.035156 130.109375 197.839844 130.078125 Z M 197.839844 130.078125 " fill-opacity="0.4" fill-rule="nonzero"/><path fill="#fe2860" d="M 197.839844 129.503906 C 196.386719 129.523438 196.386719 127.242188 197.839844 127.261719 C 199.292969 127.242188 199.292969 129.523438 197.839844 129.503906 Z M 197.839844 129.503906 " fill-opacity="0.6" fill-rule="nonzero"/><path fill="#ffffff" d="M 197.839844 128.933594 C 197.128906 128.941406 197.128906 127.824219 197.839844 127.835938 C 198.550781 127.824219 198.550781 128.941406 197.839844 128.933594 Z M 197.839844 128.933594 " fill-opacity="1" fill-rule="nonzero"/><path fill="#fe2860" d="M 201.839844 139.714844 C 205.140625 139.730469 205.140625 144.753906 201.839844 144.769531 C 198.539062 144.753906 198.539062 139.730469 201.839844 139.714844 Z M 201.839844 139.714844 " fill-opacity="0.2" fill-rule="nonzero"/><path fill="#fe2860" d="M 201.839844 144.128906 C 199.394531 144.164062 199.394531 140.320312 201.839844 140.355469 C 204.289062 140.320312 204.289062 144.164062 201.839844 144.128906 Z M 201.839844 144.128906 " fill-opacity="0.4" fill-rule="nonzero"/><path fill="#fe2860" d="M 201.839844 143.492188 C 200.222656 143.511719 200.222656 140.96875 201.839844 140.996094 C 203.460938 140.972656 203.460938 143.515625 201.839844 143.492188 Z M 201.839844 143.492188 " fill-opacity="0.6" fill-rule="nonzero"/><path fill="#ffffff" d="M 201.839844 142.851562 C 201.046875 142.863281 201.046875 141.621094 201.839844 141.632812 C 202.632812 141.621094 202.632812 142.863281 201.839844 142.851562 Z M 201.839844 142.851562 " fill-opacity="1" fill-rule="nonzero"/><path fill="#fe2860" d="M 180.421875 140 C 183.324219 139.957031 183.328125 144.523438 180.421875 144.480469 C 177.515625 144.523438 177.515625 139.957031 180.421875 140 Z M 180.421875 140 " fill-opacity="0.2" fill-rule="nonzero"/><path fill="#fe2860" d="M 180.421875 143.917969 C 178.246094 143.945312 178.246094 140.539062 180.421875 140.566406 C 182.59375 140.535156 182.59375 143.949219 180.421875 143.917969 Z M 180.421875 143.917969 " fill-opacity="0.4" fill-rule="nonzero"/><path fill="#fe2860" d="M 180.421875 143.351562 C 178.984375 143.371094 178.984375 141.113281 180.421875 141.132812 C 181.855469 141.113281 181.855469 143.371094 180.421875 143.351562 Z M 180.421875 143.351562 " fill-opacity="0.6" fill-rule="nonzero"/><path fill="#ffffff" d="M 180.421875 142.785156 C 179.714844 142.792969 179.714844 141.691406 180.421875 141.699219 C 181.125 141.691406 181.125 142.792969 180.421875 142.785156 Z M 180.421875 142.785156 " fill-opacity="1" fill-rule="nonzero"/><path fill="#fe2860" d="M 227.339844 134.171875 C 230.960938 134.1875 230.960938 139.699219 227.339844 139.714844 C 223.714844 139.699219 223.714844 134.1875 227.339844 134.171875 Z M 227.339844 134.171875 " fill-opacity="0.2" fill-rule="nonzero"/><path fill="#fe2860" d="M 227.339844 139.015625 C 224.652344 139.054688 224.652344 134.835938 227.339844 134.871094 C 230.023438 134.835938 230.023438 139.054688 227.339844 139.015625 Z M 227.339844 139.015625 " fill-opacity="0.4" fill-rule="nonzero"/><path fill="#fe2860" d="M 227.339844 138.316406 C 225.558594 138.339844 225.558594 135.546875 227.339844 135.574219 C 229.113281 135.550781 229.117188 138.34375 227.339844 138.316406 Z M 227.339844 138.316406 " fill-opacity="0.6" fill-rule="nonzero"/><path fill="#ffffff" d="M 227.339844 137.617188 C 226.46875 137.628906 226.46875 136.261719 227.339844 136.273438 C 228.207031 136.261719 228.207031 137.628906 227.339844 137.617188 Z M 227.339844 137.617188 " fill-opacity="1" fill-rule="nonzero"/><path fill="#fe2860" d="M 236.667969 122.703125 C 243.175781 122.8125 243.175781 132.5 236.667969 132.609375 C 230.164062 132.5 230.164062 122.8125 236.667969 122.703125 Z M 236.667969 122.703125 " fill-opacity="0.2" fill-rule="nonzero"/><path fill="#fe2860" d="M 236.667969 131.355469 C 231.808594 131.269531 231.808594 124.039062 236.667969 123.953125 C 241.53125 124.039062 241.53125 131.269531 236.667969 131.355469 Z M 236.667969 131.355469 " fill-opacity="0.4" fill-rule="nonzero"/><path fill="#fe2860" d="M 236.667969 130.105469 C 233.46875 130.089844 233.46875 125.226562 236.667969 125.210938 C 239.867188 125.226562 239.867188 130.089844 236.667969 130.105469 Z M 236.667969 130.105469 " fill-opacity="0.6" fill-rule="nonzero"/><path fill="#ffffff" d="M 236.667969 128.855469 C 235.117188 128.875 235.113281 126.433594 236.667969 126.457031 C 238.222656 126.433594 238.222656 128.875 236.667969 128.855469 Z M 236.667969 128.855469 " fill-opacity="1" fill-rule="nonzero"/><path fill="#fe2860" d="M 258.347656 144.046875 C 261.546875 144.058594 261.546875 148.929688 258.347656 148.941406 C 255.148438 148.929688 255.148438 144.058594 258.347656 144.046875 Z M 258.347656 144.046875 " fill-opacity="0.2" fill-rule="nonzero"/><path fill="#fe2860" d="M 258.347656 148.328125 C 255.972656 148.359375 255.972656 144.628906 258.347656 144.664062 C 260.722656 144.628906 260.722656 148.359375 258.347656 148.328125 Z M 258.347656 148.328125 " fill-opacity="0.4" fill-rule="nonzero"/><path fill="#fe2860" d="M 258.347656 147.707031 C 256.777344 147.726562 256.777344 145.261719 258.347656 145.285156 C 259.917969 145.261719 259.917969 147.726562 258.347656 147.707031 Z M 258.347656 147.707031 " fill-opacity="0.6" fill-rule="nonzero"/><path fill="#ffffff" d="M 258.347656 147.085938 C 257.578125 147.097656 257.582031 145.890625 258.347656 145.902344 C 259.113281 145.890625 259.117188 147.097656 258.347656 147.085938 Z M 258.347656 147.085938 " fill-opacity="1" fill-rule="nonzero"/><path fill="#fe2860" d="M 216.613281 148.023438 C 221.476562 148.105469 221.476562 155.34375 216.613281 155.429688 C 211.753906 155.347656 211.753906 148.109375 216.613281 148.023438 Z M 216.613281 148.023438 " fill-opacity="0.2" fill-rule="nonzero"/><path fill="#fe2860" d="M 216.613281 154.492188 C 213 154.472656 213 148.980469 216.613281 148.960938 C 220.226562 148.980469 220.226562 154.476562 216.613281 154.492188 Z M 216.613281 154.492188 " fill-opacity="0.4" fill-rule="nonzero"/><path fill="#fe2860" d="M 216.613281 153.558594 C 214.242188 153.589844 214.242188 149.863281 216.613281 149.894531 C 218.988281 149.863281 218.988281 153.589844 216.613281 153.558594 Z M 216.613281 153.558594 " fill-opacity="0.6" fill-rule="nonzero"/><path fill="#ffffff" d="M 216.613281 152.621094 C 215.453125 152.636719 215.453125 150.816406 216.613281 150.832031 C 217.773438 150.816406 217.773438 152.636719 216.613281 152.621094 Z M 216.613281 152.621094 " fill-opacity="1" fill-rule="nonzero"/><path fill="#fe2860" d="M 257.472656 167.296875 C 261.238281 167.316406 261.238281 173.046875 257.472656 173.0625 C 253.707031 173.046875 253.707031 167.3125 257.472656 167.296875 Z M 257.472656 167.296875 " fill-opacity="0.2" fill-rule="nonzero"/><path fill="#fe2860" d="M 257.472656 172.335938 C 254.679688 172.375 254.679688 167.988281 257.472656 168.023438 C 260.265625 167.984375 260.265625 172.371094 257.472656 172.335938 Z M 257.472656 172.335938 " fill-opacity="0.4" fill-rule="nonzero"/><path fill="#fe2860" d="M 257.472656 171.605469 C 255.625 171.632812 255.625 168.730469 257.472656 168.753906 C 259.320312 168.730469 259.320312 171.632812 257.472656 171.605469 Z M 257.472656 171.605469 " fill-opacity="0.6" fill-rule="nonzero"/><path fill="#ffffff" d="M 257.472656 170.878906 C 256.570312 170.890625 256.570312 169.472656 257.472656 169.484375 C 258.375 169.46875 258.375 170.890625 257.472656 170.878906 Z M 257.472656 170.878906 " fill-opacity="1" fill-rule="nonzero"/><path fill="#fe2860" d="M 195.761719 107.25 C 200.625 107.332031 200.625 114.570312 195.761719 114.652344 C 190.898438 114.570312 190.898438 107.332031 195.761719 107.25 Z M 195.761719 107.25 " fill-opacity="0.2" fill-rule="nonzero"/><path fill="#fe2860" d="M 195.761719 113.71875 C 192.144531 113.699219 192.148438 108.207031 195.761719 108.183594 C 199.375 108.207031 199.375 113.699219 195.761719 113.71875 Z M 195.761719 113.71875 " fill-opacity="0.4" fill-rule="nonzero"/><path fill="#fe2860" d="M 195.761719 112.78125 C 193.386719 112.816406 193.386719 109.085938 195.761719 109.121094 C 198.132812 109.085938 198.132812 112.816406 195.761719 112.78125 Z M 195.761719 112.78125 " fill-opacity="0.6" fill-rule="nonzero"/><path fill="#ffffff" d="M 195.761719 111.847656 C 194.601562 111.863281 194.601562 110.039062 195.761719 110.054688 C 196.921875 110.039062 196.921875 111.863281 195.761719 111.847656 Z M 195.761719 111.847656 " fill-opacity="1" fill-rule="nonzero"/><path fill="#fe2860" d="M 206.035156 72.492188 C 210.898438 72.574219 210.898438 79.816406 206.035156 79.898438 C 201.171875 79.8125 201.171875 72.574219 206.035156 72.492188 Z M 206.035156 72.492188 " fill-opacity="0.2" fill-rule="nonzero"/><path fill="#fe2860" d="M 206.035156 78.960938 C 202.417969 78.941406 202.421875 73.449219 206.035156 73.429688 C 209.648438 73.449219 209.648438 78.941406 206.035156 78.960938 Z M 206.035156 78.960938 " fill-opacity="0.4" fill-rule="nonzero"/><path fill="#fe2860" d="M 206.035156 78.027344 C 203.660156 78.058594 203.660156 74.332031 206.035156 74.363281 C 208.410156 74.332031 208.410156 78.058594 206.035156 78.027344 Z M 206.035156 78.027344 " fill-opacity="0.6" fill-rule="nonzero"/><path fill="#ffffff" d="M 206.035156 77.089844 C 204.875 77.105469 204.875 75.285156 206.035156 75.300781 C 207.195312 75.285156 207.195312 77.105469 206.035156 77.089844 Z M 206.035156 77.089844 " fill-opacity="1" fill-rule="nonzero"/><path fill="#fe2860" d="M 183.957031 107.925781 C 186.953125 107.941406 186.953125 112.496094 183.957031 112.507812 C 180.964844 112.496094 180.964844 107.941406 183.957031 107.925781 Z M 183.957031 107.925781 " fill-opacity="0.2" fill-rule="nonzero"/><path fill="#fe2860" d="M 183.957031 111.929688 C 181.738281 111.960938 181.738281 108.476562 183.957031 108.507812 C 186.175781 108.476562 186.175781 111.960938 183.957031 111.929688 Z M 183.957031 111.929688 " fill-opacity="0.4" fill-rule="nonzero"/><path fill="#fe2860" d="M 183.957031 111.347656 C 182.492188 111.371094 182.492188 109.0625 183.957031 109.082031 C 185.425781 109.0625 185.425781 111.371094 183.957031 111.347656 Z M 183.957031 111.347656 " fill-opacity="0.6" fill-rule="nonzero"/><path fill="#ffffff" d="M 183.957031 110.769531 C 183.238281 110.78125 183.238281 109.652344 183.957031 109.664062 C 184.675781 109.652344 184.675781 110.78125 183.957031 110.769531 Z M 183.957031 110.769531 " fill-opacity="1" fill-rule="nonzero"/><path fill="#fe2860" d="M 226.933594 101.328125 C 228.472656 101.304688 228.472656 103.722656 226.933594 103.699219 C 225.394531 103.722656 225.394531 101.304688 226.933594 101.328125 Z M 226.933594 101.328125 " fill-opacity="0.2" fill-rule="nonzero"/><path fill="#fe2860" d="M 226.933594 103.398438 C 225.785156 103.414062 225.785156 101.609375 226.933594 101.625 C 228.085938 101.609375 228.085938 103.414062 226.933594 103.398438 Z M 226.933594 103.398438 " fill-opacity="0.4" fill-rule="nonzero"/><path fill="#fe2860" d="M 226.933594 103.101562 C 226.175781 103.113281 226.175781 101.917969 226.933594 101.929688 C 227.695312 101.917969 227.695312 103.113281 226.933594 103.101562 Z M 226.933594 103.101562 " fill-opacity="0.6" fill-rule="nonzero"/><path fill="#ffffff" d="M 226.933594 102.800781 C 226.5625 102.804688 226.5625 102.21875 226.933594 102.226562 C 227.308594 102.222656 227.308594 102.808594 226.933594 102.800781 Z M 226.933594 102.800781 " fill-opacity="1" fill-rule="nonzero"/><g clip-path="url(#3237a3a548)"><path fill="#fe2860" d="M 270.703125 151.175781 C 275.566406 151.261719 275.566406 158.5 270.703125 158.582031 C 265.839844 158.496094 265.839844 151.257812 270.703125 151.175781 Z M 270.703125 151.175781 " fill-opacity="0.2" fill-rule="nonzero"/></g><path fill="#fe2860" d="M 270.703125 157.644531 C 267.085938 157.625 267.089844 152.128906 270.703125 152.109375 C 274.316406 152.128906 274.316406 157.625 270.703125 157.644531 Z M 270.703125 157.644531 " fill-opacity="0.4" fill-rule="nonzero"/><path fill="#fe2860" d="M 270.703125 156.707031 C 268.328125 156.742188 268.328125 153.011719 270.703125 153.046875 C 273.078125 153.011719 273.078125 156.742188 270.703125 156.707031 Z M 270.703125 156.707031 " fill-opacity="0.6" fill-rule="nonzero"/><path fill="#ffffff" d="M 270.703125 155.773438 C 269.542969 155.789062 269.542969 153.96875 270.703125 153.984375 C 271.863281 153.96875 271.863281 155.789062 270.703125 155.773438 Z M 270.703125 155.773438 " fill-opacity="1" fill-rule="nonzero"/><path fill="#fe2860" d="M 258.28125 89.671875 C 263.144531 89.753906 263.144531 96.992188 258.28125 97.074219 C 253.421875 96.992188 253.421875 89.753906 258.28125 89.671875 Z M 258.28125 89.671875 " fill-opacity="0.2" fill-rule="nonzero"/><path fill="#fe2860" d="M 258.28125 96.136719 C 254.667969 96.117188 254.667969 90.625 258.28125 90.605469 C 261.898438 90.625 261.898438 96.117188 258.28125 96.136719 Z M 258.28125 96.136719 " fill-opacity="0.4" fill-rule="nonzero"/><path fill="#fe2860" d="M 258.28125 95.203125 C 255.910156 95.238281 255.910156 91.507812 258.28125 91.539062 C 260.65625 91.507812 260.65625 95.238281 258.28125 95.203125 Z M 258.28125 95.203125 " fill-opacity="0.6" fill-rule="nonzero"/><path fill="#ffffff" d="M 258.28125 94.269531 C 257.121094 94.285156 257.121094 92.460938 258.28125 92.476562 C 259.441406 92.460938 259.441406 94.285156 258.28125 94.269531 Z M 258.28125 94.269531 " fill-opacity="1" fill-rule="nonzero"/><path fill="#fe2860" d="M 156.496094 76.195312 C 159.765625 76.210938 159.765625 81.183594 156.496094 81.199219 C 153.226562 81.183594 153.226562 76.210938 156.496094 76.195312 Z M 156.496094 76.195312 " fill-opacity="0.2" fill-rule="nonzero"/><path fill="#fe2860" d="M 156.496094 80.566406 C 154.074219 80.597656 154.074219 76.792969 156.496094 76.824219 C 158.921875 76.792969 158.921875 80.597656 156.496094 80.566406 Z M 156.496094 80.566406 " fill-opacity="0.4" fill-rule="nonzero"/><path fill="#fe2860" d="M 156.496094 79.933594 C 154.894531 79.957031 154.894531 77.4375 156.496094 77.460938 C 158.101562 77.4375 158.101562 79.957031 156.496094 79.933594 Z M 156.496094 79.933594 " fill-opacity="0.6" fill-rule="nonzero"/><path fill="#ffffff" d="M 156.496094 79.300781 C 155.714844 79.3125 155.714844 78.078125 156.496094 78.089844 C 157.28125 78.078125 157.28125 79.3125 156.496094 79.300781 Z M 156.496094 79.300781 " fill-opacity="1" fill-rule="nonzero"/><path fill="#fe2860" d="M 239.117188 86.757812 C 241.488281 86.722656 241.488281 90.453125 239.117188 90.421875 C 236.742188 90.457031 236.742188 86.726562 239.117188 86.757812 Z M 239.117188 86.757812 " fill-opacity="0.2" fill-rule="nonzero"/><path fill="#fe2860" d="M 239.117188 89.957031 C 237.34375 89.980469 237.34375 87.195312 239.117188 87.21875 C 240.890625 87.195312 240.890625 89.980469 239.117188 89.957031 Z M 239.117188 89.957031 " fill-opacity="0.4" fill-rule="nonzero"/><path fill="#fe2860" d="M 239.117188 89.496094 C 237.941406 89.511719 237.941406 87.667969 239.117188 87.683594 C 240.289062 87.667969 240.289062 89.511719 239.117188 89.496094 Z M 239.117188 89.496094 " fill-opacity="0.6" fill-rule="nonzero"/><path fill="#ffffff" d="M 239.117188 89.03125 C 238.542969 89.039062 238.542969 88.140625 239.117188 88.148438 C 239.691406 88.140625 239.691406 89.042969 239.117188 89.03125 Z M 239.117188 89.03125 " fill-opacity="1" fill-rule="nonzero"/><path fill="#fe2860" d="M 171.261719 134.183594 C 173.636719 134.148438 173.636719 137.878906 171.261719 137.847656 C 168.886719 137.882812 168.886719 134.148438 171.261719 134.183594 Z M 171.261719 134.183594 " fill-opacity="0.2" fill-rule="nonzero"/><path fill="#fe2860" d="M 171.261719 137.382812 C 169.488281 137.40625 169.488281 134.621094 171.261719 134.644531 C 173.035156 134.621094 173.035156 137.40625 171.261719 137.382812 Z M 171.261719 137.382812 " fill-opacity="0.4" fill-rule="nonzero"/><path fill="#fe2860" d="M 171.261719 136.917969 C 170.089844 136.933594 170.089844 135.09375 171.261719 135.109375 C 172.433594 135.09375 172.433594 136.933594 171.261719 136.917969 Z M 171.261719 136.917969 " fill-opacity="0.6" fill-rule="nonzero"/><path fill="#ffffff" d="M 171.261719 136.457031 C 170.6875 136.464844 170.6875 135.5625 171.261719 135.574219 C 171.835938 135.566406 171.835938 136.464844 171.261719 136.457031 Z M 171.261719 136.457031 " fill-opacity="1" fill-rule="nonzero"/><path fill="#fe2860" d="M 190.152344 171.527344 C 191.925781 171.5 191.925781 174.289062 190.152344 174.265625 C 188.378906 174.289062 188.378906 171.5 190.152344 171.527344 Z M 190.152344 171.527344 " fill-opacity="0.2" fill-rule="nonzero"/><path fill="#fe2860" d="M 190.152344 173.917969 C 188.828125 173.9375 188.828125 171.851562 190.152344 171.875 C 191.480469 171.855469 191.480469 173.9375 190.152344 173.917969 Z M 190.152344 173.917969 " fill-opacity="0.4" fill-rule="nonzero"/><path fill="#fe2860" d="M 190.152344 173.574219 C 189.277344 173.585938 189.273438 172.207031 190.152344 172.214844 C 191.03125 172.203125 191.03125 173.582031 190.152344 173.574219 Z M 190.152344 173.574219 " fill-opacity="0.6" fill-rule="nonzero"/><path fill="#ffffff" d="M 190.152344 173.226562 C 189.722656 173.230469 189.722656 172.558594 190.152344 172.5625 C 190.582031 172.554688 190.582031 173.230469 190.152344 173.226562 Z M 190.152344 173.226562 " fill-opacity="1" fill-rule="nonzero"/><path fill="#fe2860" d="M 188.546875 67.140625 C 190.921875 67.105469 190.921875 70.835938 188.546875 70.804688 C 186.175781 70.839844 186.175781 67.105469 188.546875 67.140625 Z M 188.546875 67.140625 " fill-opacity="0.2" fill-rule="nonzero"/><path fill="#fe2860" d="M 188.546875 70.339844 C 186.773438 70.363281 186.773438 67.578125 188.546875 67.601562 C 190.324219 67.578125 190.324219 70.363281 188.546875 70.339844 Z M 188.546875 70.339844 " fill-opacity="0.4" fill-rule="nonzero"/><path fill="#fe2860" d="M 188.546875 69.875 C 187.375 69.890625 187.375 68.050781 188.546875 68.066406 C 189.722656 68.050781 189.722656 69.890625 188.546875 69.875 Z M 188.546875 69.875 " fill-opacity="0.6" fill-rule="nonzero"/><path fill="#ffffff" d="M 188.546875 69.414062 C 187.976562 69.421875 187.976562 68.519531 188.546875 68.53125 C 189.121094 68.523438 189.121094 69.421875 188.546875 69.414062 Z M 188.546875 69.414062 " fill-opacity="1" fill-rule="nonzero"/><path fill="#fe2860" d="M 206.480469 94.886719 C 210.164062 94.902344 210.164062 100.503906 206.480469 100.519531 C 202.796875 100.503906 202.796875 94.902344 206.480469 94.886719 Z M 206.480469 94.886719 " fill-opacity="0.2" fill-rule="nonzero"/><path fill="#fe2860" d="M 206.480469 99.8125 C 203.75 99.851562 203.75 95.5625 206.480469 95.601562 C 209.207031 95.5625 209.207031 99.851562 206.480469 99.8125 Z M 206.480469 99.8125 " fill-opacity="0.4" fill-rule="nonzero"/><path fill="#fe2860" d="M 206.480469 99.097656 C 204.671875 99.121094 204.671875 96.285156 206.480469 96.3125 C 208.285156 96.285156 208.285156 99.125 206.480469 99.097656 Z M 206.480469 99.097656 " fill-opacity="0.6" fill-rule="nonzero"/><path fill="#ffffff" d="M 206.480469 98.386719 C 205.597656 98.398438 205.597656 97.011719 206.480469 97.023438 C 207.363281 97.011719 207.363281 98.402344 206.480469 98.386719 Z M 206.480469 98.386719 " fill-opacity="1" fill-rule="nonzero"/><path fill="#fe2860" d="M 240.132812 97.566406 C 244.996094 97.652344 244.996094 104.890625 240.132812 104.972656 C 235.269531 104.886719 235.269531 97.648438 240.132812 97.566406 Z M 240.132812 97.566406 " fill-opacity="0.2" fill-rule="nonzero"/><path fill="#fe2860" d="M 240.132812 104.035156 C 236.515625 104.015625 236.519531 98.523438 240.132812 98.503906 C 243.746094 98.523438 243.746094 104.015625 240.132812 104.035156 Z M 240.132812 104.035156 " fill-opacity="0.4" fill-rule="nonzero"/><path fill="#fe2860" d="M 240.132812 103.101562 C 237.757812 103.132812 237.757812 99.40625 240.132812 99.4375 C 242.507812 99.40625 242.507812 103.132812 240.132812 103.101562 Z M 240.132812 103.101562 " fill-opacity="0.6" fill-rule="nonzero"/><path fill="#ffffff" d="M 240.132812 102.164062 C 238.972656 102.179688 238.972656 100.359375 240.132812 100.375 C 241.292969 100.359375 241.292969 102.179688 240.132812 102.164062 Z M 240.132812 102.164062 " fill-opacity="1" fill-rule="nonzero"/><path fill="#fe2860" d="M 250.074219 111.253906 C 253.089844 111.265625 253.089844 115.855469 250.074219 115.871094 C 247.058594 115.855469 247.058594 111.265625 250.074219 111.253906 Z M 250.074219 111.253906 " fill-opacity="0.2" fill-rule="nonzero"/><path fill="#fe2860" d="M 250.074219 115.285156 C 247.839844 115.316406 247.839844 111.804688 250.074219 111.835938 C 252.3125 111.804688 252.3125 115.316406 250.074219 115.285156 Z M 250.074219 115.285156 " fill-opacity="0.4" fill-rule="nonzero"/><path fill="#fe2860" d="M 250.074219 114.703125 C 248.59375 114.722656 248.59375 112.398438 250.074219 112.417969 C 251.554688 112.398438 251.554688 114.722656 250.074219 114.703125 Z M 250.074219 114.703125 " fill-opacity="0.6" fill-rule="nonzero"/><path fill="#ffffff" d="M 250.074219 114.121094 C 249.351562 114.128906 249.351562 112.992188 250.074219 113.003906 C 250.796875 112.992188 250.796875 114.128906 250.074219 114.121094 Z M 250.074219 114.121094 " fill-opacity="1" fill-rule="nonzero"/><path fill="#fe2860" d="M 163.628906 106.035156 C 167.039062 106.050781 167.039062 111.242188 163.628906 111.257812 C 160.214844 111.242188 160.214844 106.050781 163.628906 106.035156 Z M 163.628906 106.035156 " fill-opacity="0.2" fill-rule="nonzero"/><path fill="#fe2860" d="M 163.628906 110.597656 C 161.097656 110.632812 161.097656 106.660156 163.628906 106.695312 C 166.15625 106.660156 166.15625 110.632812 163.628906 110.597656 Z M 163.628906 110.597656 " fill-opacity="0.4" fill-rule="nonzero"/><path fill="#fe2860" d="M 163.628906 109.941406 C 161.953125 109.964844 161.953125 107.335938 163.628906 107.359375 C 165.300781 107.335938 165.300781 109.964844 163.628906 109.941406 Z M 163.628906 109.941406 " fill-opacity="0.6" fill-rule="nonzero"/><path fill="#ffffff" d="M 163.628906 109.28125 C 162.808594 109.292969 162.808594 108.007812 163.628906 108.015625 C 164.445312 108.003906 164.449219 109.292969 163.628906 109.28125 Z M 163.628906 109.28125 " fill-opacity="1" fill-rule="nonzero"/><path fill="#fe2860" d="M 168.996094 81.25 C 171.3125 81.21875 171.3125 84.855469 168.996094 84.824219 C 166.679688 84.855469 166.679688 81.21875 168.996094 81.25 Z M 168.996094 81.25 " fill-opacity="0.2" fill-rule="nonzero"/><path fill="#fe2860" d="M 168.996094 84.371094 C 167.265625 84.398438 167.265625 81.679688 168.996094 81.703125 C 170.726562 81.679688 170.726562 84.394531 168.996094 84.371094 Z M 168.996094 84.371094 " fill-opacity="0.4" fill-rule="nonzero"/><path fill="#fe2860" d="M 168.996094 83.921875 C 167.851562 83.9375 167.851562 82.136719 168.996094 82.15625 C 170.140625 82.140625 170.140625 83.9375 168.996094 83.921875 Z M 168.996094 83.921875 " fill-opacity="0.6" fill-rule="nonzero"/><path fill="#ffffff" d="M 168.996094 83.46875 C 168.4375 83.476562 168.4375 82.59375 168.996094 82.605469 C 169.558594 82.597656 169.558594 83.476562 168.996094 83.46875 Z M 168.996094 83.46875 " fill-opacity="1" fill-rule="nonzero"/><path fill="#fe2860" d="M 191.574219 76.925781 C 196.066406 76.949219 196.066406 83.789062 191.574219 83.808594 C 187.078125 83.789062 187.078125 76.949219 191.574219 76.925781 Z M 191.574219 76.925781 " fill-opacity="0.2" fill-rule="nonzero"/><path fill="#fe2860" d="M 191.574219 82.9375 C 188.214844 82.917969 188.214844 77.8125 191.574219 77.796875 C 194.933594 77.8125 194.933594 82.921875 191.574219 82.9375 Z M 191.574219 82.9375 " fill-opacity="0.4" fill-rule="nonzero"/><path fill="#fe2860" d="M 191.574219 82.066406 C 189.367188 82.097656 189.367188 78.632812 191.574219 78.664062 C 193.777344 78.632812 193.777344 82.097656 191.574219 82.066406 Z M 191.574219 82.066406 " fill-opacity="0.6" fill-rule="nonzero"/><path fill="#ffffff" d="M 191.574219 81.199219 C 190.496094 81.214844 190.492188 79.519531 191.574219 79.535156 C 192.652344 79.519531 192.652344 81.214844 191.574219 81.199219 Z M 191.574219 81.199219 " fill-opacity="1" fill-rule="nonzero"/><path fill="#fe2860" d="M 147.890625 91.96875 C 150.207031 91.933594 150.207031 95.574219 147.890625 95.539062 C 145.578125 95.574219 145.578125 91.933594 147.890625 91.96875 Z M 147.890625 91.96875 " fill-opacity="0.2" fill-rule="nonzero"/><path fill="#fe2860" d="M 147.890625 95.089844 C 146.164062 95.113281 146.164062 92.394531 147.890625 92.417969 C 149.621094 92.394531 149.621094 95.109375 147.890625 95.089844 Z M 147.890625 95.089844 " fill-opacity="0.4" fill-rule="nonzero"/><path fill="#fe2860" d="M 147.890625 94.636719 C 146.746094 94.652344 146.746094 92.855469 147.890625 92.871094 C 149.035156 92.855469 149.035156 94.65625 147.890625 94.636719 Z M 147.890625 94.636719 " fill-opacity="0.6" fill-rule="nonzero"/><path fill="#ffffff" d="M 147.890625 94.1875 C 147.332031 94.191406 147.332031 93.3125 147.890625 93.320312 C 148.453125 93.316406 148.453125 94.195312 147.890625 94.1875 Z M 147.890625 94.1875 " fill-opacity="1" fill-rule="nonzero"/><path fill="#fe2860" d="M 187.214844 154.875 C 193.234375 154.976562 193.234375 163.941406 187.214844 164.042969 C 181.195312 163.941406 181.195312 154.976562 187.214844 154.875 Z M 187.214844 154.875 " fill-opacity="0.2" fill-rule="nonzero"/><path fill="#fe2860" d="M 187.214844 162.882812 C 182.742188 162.859375 182.742188 156.058594 187.214844 156.03125 C 191.691406 156.058594 191.691406 162.859375 187.214844 162.882812 Z M 187.214844 162.882812 " fill-opacity="0.4" fill-rule="nonzero"/><path fill="#fe2860" d="M 187.214844 161.726562 C 184.277344 161.765625 184.28125 157.152344 187.214844 157.195312 C 190.152344 157.15625 190.152344 161.769531 187.214844 161.726562 Z M 187.214844 161.726562 " fill-opacity="0.6" fill-rule="nonzero"/><path fill="#ffffff" d="M 187.214844 160.570312 C 185.777344 160.589844 185.777344 158.332031 187.214844 158.351562 C 188.652344 158.332031 188.652344 160.589844 187.214844 160.570312 Z M 187.214844 160.570312 " fill-opacity="1" fill-rule="nonzero"/><path fill="#fe2860" d="M 230.574219 161.21875 C 236.8125 161.328125 236.8125 170.609375 230.574219 170.714844 C 224.339844 170.609375 224.339844 161.328125 230.574219 161.21875 Z M 230.574219 161.21875 " fill-opacity="0.2" fill-rule="nonzero"/><path fill="#fe2860" d="M 230.574219 169.320312 C 226.199219 169.292969 226.199219 162.640625 230.574219 162.617188 C 234.953125 162.640625 234.949219 169.292969 230.574219 169.320312 Z M 230.574219 169.320312 " fill-opacity="0.4" fill-rule="nonzero"/><path fill="#fe2860" d="M 230.574219 167.917969 C 228.050781 167.953125 228.050781 163.984375 230.574219 164.019531 C 233.101562 163.984375 233.101562 167.953125 230.574219 167.917969 Z M 230.574219 167.917969 " fill-opacity="0.6" fill-rule="nonzero"/><path fill="#ffffff" d="M 230.574219 166.519531 C 229.863281 166.53125 229.859375 165.40625 230.574219 165.417969 C 231.289062 165.40625 231.289062 166.527344 230.574219 166.519531 Z M 230.574219 166.519531 " fill-opacity="1" fill-rule="nonzero"/><path fill="#fe2860" d="M 238.347656 194.992188 C 242.894531 195.011719 242.894531 201.933594 238.347656 201.953125 C 233.800781 201.933594 233.800781 195.011719 238.347656 194.992188 Z M 238.347656 194.992188 " fill-opacity="0.2" fill-rule="nonzero"/><path fill="#fe2860" d="M 238.347656 200.925781 C 235.140625 200.910156 235.140625 196.035156 238.347656 196.015625 C 241.554688 196.035156 241.554688 200.910156 238.347656 200.925781 Z M 238.347656 200.925781 " fill-opacity="0.4" fill-rule="nonzero"/><path fill="#fe2860" d="M 238.347656 199.902344 C 236.496094 199.925781 236.496094 197.019531 238.347656 197.042969 C 240.199219 197.015625 240.199219 199.925781 238.347656 199.902344 Z M 238.347656 199.902344 " fill-opacity="0.6" fill-rule="nonzero"/><path fill="#ffffff" d="M 238.347656 198.875 C 237.824219 198.882812 237.824219 198.0625 238.347656 198.066406 C 238.871094 198.0625 238.871094 198.882812 238.347656 198.875 Z M 238.347656 198.875 " fill-opacity="1" fill-rule="nonzero"/><path fill="#0086ff" d="M 206 158.351562 C 214.710938 158.5 214.710938 171.464844 206 171.613281 C 197.289062 171.464844 197.292969 158.5 206 158.351562 Z M 206 158.351562 " fill-opacity="0.2" fill-rule="nonzero"/><path fill="#0086ff" d="M 206 170.195312 C 199.152344 170.074219 199.15625 159.886719 206 159.769531 C 212.851562 159.890625 212.847656 170.078125 206 170.195312 Z M 206 170.195312 " fill-opacity="0.4" fill-rule="nonzero"/><path fill="#0086ff" d="M 206 168.78125 C 201.011719 168.691406 201.015625 161.269531 206 161.183594 C 210.992188 161.273438 210.988281 168.695312 206 168.78125 Z M 206 168.78125 " fill-opacity="0.6" fill-rule="nonzero"/><path fill="#0086ff" d="M 206 167.363281 C 202.890625 167.347656 202.890625 162.617188 206 162.601562 C 209.113281 162.617188 209.113281 167.347656 206 167.363281 Z M 206 167.363281 " fill-opacity="0.8" fill-rule="nonzero"/><path fill="#ffffff" d="M 206 165.949219 C 204.75 165.964844 204.75 164 206 164.019531 C 207.253906 164 207.253906 165.964844 206 165.949219 Z M 206 165.949219 " fill-opacity="1" fill-rule="nonzero"/><path fill="#0086ff" d="M 179.847656 95.40625 C 183.75 95.421875 183.75 101.359375 179.847656 101.375 C 175.945312 101.359375 175.945312 95.421875 179.847656 95.40625 Z M 179.847656 95.40625 " fill-opacity="0.2" fill-rule="nonzero"/><path fill="#0086ff" d="M 179.847656 100.742188 C 176.777344 100.726562 176.777344 96.058594 179.847656 96.046875 C 182.914062 96.0625 182.910156 100.726562 179.847656 100.742188 Z M 179.847656 100.742188 " fill-opacity="0.4" fill-rule="nonzero"/><path fill="#0086ff" d="M 179.847656 100.101562 C 177.628906 100.132812 177.628906 96.648438 179.847656 96.679688 C 182.0625 96.648438 182.0625 100.132812 179.847656 100.101562 Z M 179.847656 100.101562 " fill-opacity="0.6" fill-rule="nonzero"/><path fill="#0086ff" d="M 179.847656 99.460938 C 178.457031 99.480469 178.457031 97.300781 179.847656 97.316406 C 181.234375 97.300781 181.234375 99.480469 179.847656 99.460938 Z M 179.847656 99.460938 " fill-opacity="0.8" fill-rule="nonzero"/><path fill="#ffffff" d="M 179.847656 98.824219 C 179.285156 98.835938 179.285156 97.949219 179.847656 97.957031 C 180.410156 97.949219 180.410156 98.832031 179.847656 98.824219 Z M 179.847656 98.824219 " fill-opacity="1" fill-rule="nonzero"/><path fill="#0086ff" d="M 212.570312 122.164062 C 218.488281 122.265625 218.488281 131.070312 212.570312 131.171875 C 206.65625 131.070312 206.65625 122.261719 212.570312 122.164062 Z M 212.570312 122.164062 " fill-opacity="0.2" fill-rule="nonzero"/><path fill="#0086ff" d="M 212.574219 130.207031 C 207.945312 130.183594 207.945312 123.144531 212.574219 123.121094 C 217.203125 123.144531 217.203125 130.183594 212.574219 130.207031 Z M 212.574219 130.207031 " fill-opacity="0.4" fill-rule="nonzero"/><path fill="#0086ff" d="M 212.574219 129.246094 C 209.203125 129.230469 209.203125 124.105469 212.574219 124.089844 C 215.945312 124.105469 215.945312 129.230469 212.574219 129.246094 Z M 212.574219 129.246094 " fill-opacity="0.6" fill-rule="nonzero"/><path fill="#0086ff" d="M 212.574219 128.285156 C 210.476562 128.3125 210.476562 125.019531 212.574219 125.050781 C 214.671875 125.019531 214.671875 128.3125 212.574219 128.285156 Z M 212.574219 128.285156 " fill-opacity="0.8" fill-rule="nonzero"/><path fill="#ffffff" d="M 212.574219 127.324219 C 211.722656 127.335938 211.722656 126 212.574219 126.011719 C 213.421875 126 213.421875 127.335938 212.574219 127.324219 Z M 212.574219 127.324219 " fill-opacity="1" fill-rule="nonzero"/><path fill="#0086ff" d="M 222.90625 106.738281 C 226.875 106.757812 226.875 112.792969 222.90625 112.8125 C 218.9375 112.792969 218.9375 106.757812 222.90625 106.738281 Z M 222.90625 106.738281 " fill-opacity="0.2" fill-rule="nonzero"/><path fill="#0086ff" d="M 222.90625 112.164062 C 219.785156 112.148438 219.785156 107.402344 222.90625 107.386719 C 226.023438 107.402344 226.023438 112.148438 222.90625 112.164062 Z M 222.90625 112.164062 " fill-opacity="0.4" fill-rule="nonzero"/><path fill="#0086ff" d="M 222.90625 111.511719 C 220.652344 111.542969 220.652344 108.003906 222.90625 108.035156 C 225.160156 108.003906 225.160156 111.542969 222.90625 111.511719 Z M 222.90625 111.511719 " fill-opacity="0.6" fill-rule="nonzero"/><path fill="#0086ff" d="M 222.90625 110.867188 C 221.492188 110.886719 221.492188 108.664062 222.90625 108.683594 C 224.320312 108.664062 224.320312 110.886719 222.90625 110.867188 Z M 222.90625 110.867188 " fill-opacity="0.8" fill-rule="nonzero"/><path fill="#ffffff" d="M 222.90625 110.21875 C 222.332031 110.222656 222.332031 109.324219 222.90625 109.332031 C 223.480469 109.328125 223.472656 110.222656 222.90625 110.21875 Z M 222.90625 110.21875 " fill-opacity="1" fill-rule="nonzero"/><path fill="#0086ff" d="M 222.90625 85.207031 C 228.148438 85.292969 228.148438 93.097656 222.90625 93.1875 C 217.660156 93.097656 217.664062 85.292969 222.90625 85.207031 Z M 222.90625 85.207031 " fill-opacity="0.2" fill-rule="nonzero"/><path fill="#0086ff" d="M 222.90625 92.335938 C 218.804688 92.3125 218.800781 86.078125 222.90625 86.058594 C 227.007812 86.082031 227.003906 92.3125 222.90625 92.335938 Z M 222.90625 92.335938 " fill-opacity="0.4" fill-rule="nonzero"/><path fill="#0086ff" d="M 222.90625 91.484375 C 219.917969 91.46875 219.917969 86.925781 222.90625 86.910156 C 225.890625 86.925781 225.890625 91.46875 222.90625 91.484375 Z M 222.90625 91.484375 " fill-opacity="0.6" fill-rule="nonzero"/><path fill="#0086ff" d="M 222.90625 90.628906 C 221.046875 90.65625 221.046875 87.734375 222.90625 87.761719 C 224.761719 87.734375 224.761719 90.65625 222.90625 90.628906 Z M 222.90625 90.628906 " fill-opacity="0.8" fill-rule="nonzero"/><path fill="#ffffff" d="M 222.90625 89.777344 C 222.152344 89.785156 222.15625 88.605469 222.90625 88.617188 C 223.65625 88.605469 223.660156 89.789062 222.90625 89.777344 Z M 222.90625 89.777344 " fill-opacity="1" fill-rule="nonzero"/><path fill="#0086ff" d="M 223.996094 67.164062 C 226.910156 67.121094 226.910156 71.703125 223.996094 71.660156 C 221.082031 71.699219 221.082031 67.121094 223.996094 67.164062 Z M 223.996094 67.164062 " fill-opacity="0.2" fill-rule="nonzero"/><path fill="#0086ff" d="M 223.996094 71.179688 C 221.703125 71.214844 221.703125 67.613281 223.996094 67.644531 C 226.285156 67.613281 226.285156 71.214844 223.996094 71.179688 Z M 223.996094 71.179688 " fill-opacity="0.4" fill-rule="nonzero"/><path fill="#0086ff" d="M 223.996094 70.699219 C 222.328125 70.722656 222.328125 68.101562 223.996094 68.125 C 225.664062 68.101562 225.664062 70.722656 223.996094 70.699219 Z M 223.996094 70.699219 " fill-opacity="0.6" fill-rule="nonzero"/><path fill="#0086ff" d="M 223.996094 70.21875 C 222.949219 70.234375 222.949219 68.59375 223.996094 68.605469 C 225.039062 68.59375 225.039062 70.234375 223.996094 70.21875 Z M 223.996094 70.21875 " fill-opacity="0.8" fill-rule="nonzero"/><path fill="#ffffff" d="M 223.996094 69.742188 C 223.570312 69.75 223.570312 69.082031 223.996094 69.089844 C 224.417969 69.082031 224.417969 69.746094 223.996094 69.742188 Z M 223.996094 69.742188 " fill-opacity="1" fill-rule="nonzero"/><path fill="#0086ff" d="M 176.082031 147.796875 C 181.074219 147.882812 181.074219 155.308594 176.082031 155.398438 C 171.089844 155.3125 171.089844 147.882812 176.082031 147.796875 Z M 176.082031 147.796875 " fill-opacity="0.2" fill-rule="nonzero"/><path fill="#0086ff" d="M 176.082031 154.582031 C 172.175781 154.5625 172.179688 148.625 176.082031 148.605469 C 179.984375 148.625 179.984375 154.5625 176.082031 154.582031 Z M 176.082031 154.582031 " fill-opacity="0.4" fill-rule="nonzero"/><path fill="#0086ff" d="M 176.082031 153.773438 C 173.261719 153.8125 173.261719 149.382812 176.082031 149.421875 C 178.902344 149.382812 178.902344 153.8125 176.082031 153.773438 Z M 176.082031 153.773438 " fill-opacity="0.6" fill-rule="nonzero"/><path fill="#0086ff" d="M 176.082031 152.960938 C 174.3125 152.984375 174.3125 150.203125 176.082031 150.230469 C 177.851562 150.207031 177.851562 152.984375 176.082031 152.960938 Z M 176.082031 152.960938 " fill-opacity="0.8" fill-rule="nonzero"/><path fill="#ffffff" d="M 176.082031 152.148438 C 175.363281 152.15625 175.363281 151.035156 176.082031 151.042969 C 176.800781 151.035156 176.800781 152.15625 176.082031 152.148438 Z M 176.082031 152.148438 " fill-opacity="1" fill-rule="nonzero"/><path fill="#0086ff" d="M 267.9375 124.511719 C 272.894531 124.597656 272.894531 131.972656 267.9375 132.054688 C 262.984375 131.96875 262.988281 124.59375 267.9375 124.511719 Z M 267.9375 124.511719 " fill-opacity="0.2" fill-rule="nonzero"/><path fill="#0086ff" d="M 267.9375 131.25 C 264.0625 131.230469 264.0625 125.335938 267.9375 125.316406 C 271.8125 125.335938 271.8125 131.230469 267.9375 131.25 Z M 267.9375 131.25 " fill-opacity="0.4" fill-rule="nonzero"/><path fill="#0086ff" d="M 267.9375 130.441406 C 265.140625 130.480469 265.144531 126.085938 267.9375 126.125 C 270.738281 126.085938 270.738281 130.480469 267.9375 130.441406 Z M 267.9375 130.441406 " fill-opacity="0.6" fill-rule="nonzero"/><path fill="#0086ff" d="M 267.9375 129.636719 C 266.183594 129.664062 266.1875 126.90625 267.9375 126.929688 C 269.691406 126.90625 269.691406 129.664062 267.9375 129.636719 Z M 267.9375 129.636719 " fill-opacity="0.8" fill-rule="nonzero"/><path fill="#ffffff" d="M 267.9375 128.832031 C 267.230469 128.839844 267.230469 127.726562 267.9375 127.734375 C 268.648438 127.726562 268.648438 128.839844 267.9375 128.832031 Z M 267.9375 128.832031 " fill-opacity="1" fill-rule="nonzero"/><path fill="#0086ff" d="M 260.28125 106.257812 C 263.195312 106.214844 263.195312 110.796875 260.28125 110.75 C 257.367188 110.792969 257.367188 106.214844 260.28125 106.257812 Z M 260.28125 106.257812 " fill-opacity="0.2" fill-rule="nonzero"/><path fill="#0086ff" d="M 260.28125 110.269531 C 257.992188 110.304688 257.992188 106.703125 260.28125 106.734375 C 262.570312 106.703125 262.570312 110.304688 260.28125 110.269531 Z M 260.28125 110.269531 " fill-opacity="0.4" fill-rule="nonzero"/><path fill="#0086ff" d="M 260.28125 109.792969 C 258.613281 109.8125 258.613281 107.195312 260.28125 107.21875 C 261.949219 107.195312 261.949219 109.8125 260.28125 109.792969 Z M 260.28125 109.792969 " fill-opacity="0.6" fill-rule="nonzero"/><path fill="#0086ff" d="M 260.28125 109.3125 C 259.238281 109.328125 259.238281 107.683594 260.28125 107.699219 C 261.328125 107.683594 261.328125 109.328125 260.28125 109.3125 Z M 260.28125 109.3125 " fill-opacity="0.8" fill-rule="nonzero"/><path fill="#ffffff" d="M 260.28125 108.832031 C 259.859375 108.839844 259.859375 108.175781 260.28125 108.179688 C 260.707031 108.171875 260.707031 108.835938 260.28125 108.832031 Z M 260.28125 108.832031 " fill-opacity="1" fill-rule="nonzero"/><path fill="#0086ff" d="M 161.019531 95.710938 C 163.933594 95.667969 163.933594 100.25 161.019531 100.203125 C 158.105469 100.246094 158.105469 95.667969 161.019531 95.710938 Z M 161.019531 95.710938 " fill-opacity="0.2" fill-rule="nonzero"/><path fill="#0086ff" d="M 161.019531 99.722656 C 158.726562 99.757812 158.726562 96.15625 161.019531 96.1875 C 163.308594 96.15625 163.308594 99.757812 161.019531 99.722656 Z M 161.019531 99.722656 " fill-opacity="0.4" fill-rule="nonzero"/><path fill="#0086ff" d="M 161.019531 99.246094 C 159.351562 99.265625 159.351562 96.648438 161.019531 96.671875 C 162.6875 96.648438 162.6875 99.265625 161.019531 99.246094 Z M 161.019531 99.246094 " fill-opacity="0.6" fill-rule="nonzero"/><path fill="#0086ff" d="M 161.019531 98.765625 C 159.972656 98.78125 159.972656 97.136719 161.019531 97.152344 C 162.0625 97.136719 162.0625 98.78125 161.019531 98.765625 Z M 161.019531 98.765625 " fill-opacity="0.8" fill-rule="nonzero"/><path fill="#ffffff" d="M 161.019531 98.28125 C 160.59375 98.289062 160.59375 97.625 161.019531 97.628906 C 161.441406 97.621094 161.441406 98.289062 161.019531 98.28125 Z M 161.019531 98.28125 " fill-opacity="1" fill-rule="nonzero"/><path fill="#0086ff" d="M 238.671875 74.597656 C 244.015625 74.691406 244.011719 82.636719 238.671875 82.726562 C 233.332031 82.636719 233.335938 74.691406 238.671875 74.597656 Z M 238.671875 74.597656 " fill-opacity="0.2" fill-rule="nonzero"/><path fill="#0086ff" d="M 238.671875 81.863281 C 234.496094 81.839844 234.496094 75.488281 238.671875 75.46875 C 242.851562 75.488281 242.847656 81.839844 238.671875 81.863281 Z M 238.671875 81.863281 " fill-opacity="0.4" fill-rule="nonzero"/><path fill="#0086ff" d="M 238.671875 80.992188 C 235.628906 80.976562 235.628906 76.351562 238.671875 76.335938 C 241.714844 76.351562 241.714844 80.976562 238.671875 80.992188 Z M 238.671875 80.992188 " fill-opacity="0.6" fill-rule="nonzero"/><path fill="#0086ff" d="M 238.671875 80.125 C 236.78125 80.152344 236.78125 77.179688 238.671875 77.207031 C 240.5625 77.179688 240.5625 80.152344 238.671875 80.125 Z M 238.671875 80.125 " fill-opacity="0.8" fill-rule="nonzero"/><path fill="#ffffff" d="M 238.671875 79.257812 C 237.90625 79.265625 237.90625 78.0625 238.671875 78.074219 C 239.4375 78.0625 239.4375 79.265625 238.671875 79.257812 Z M 238.671875 79.257812 " fill-opacity="1" fill-rule="nonzero"/><g clip-path="url(#1aff4a5471)"><path fill="#0086ff" d="M 175.820312 65.347656 C 181.160156 65.4375 181.160156 73.386719 175.820312 73.476562 C 170.480469 73.386719 170.480469 65.4375 175.820312 65.347656 Z M 175.820312 65.347656 " fill-opacity="0.2" fill-rule="nonzero"/></g><path fill="#0086ff" d="M 175.820312 72.609375 C 171.644531 72.589844 171.644531 66.238281 175.820312 66.214844 C 180 66.238281 179.996094 72.589844 175.820312 72.609375 Z M 175.820312 72.609375 " fill-opacity="0.4" fill-rule="nonzero"/><path fill="#0086ff" d="M 175.820312 71.742188 C 172.777344 71.726562 172.777344 67.097656 175.820312 67.082031 C 178.863281 67.097656 178.863281 71.726562 175.820312 71.742188 Z M 175.820312 71.742188 " fill-opacity="0.6" fill-rule="nonzero"/><path fill="#0086ff" d="M 175.820312 70.875 C 173.929688 70.902344 173.929688 67.925781 175.820312 67.957031 C 177.710938 67.929688 177.710938 70.902344 175.820312 70.875 Z M 175.820312 70.875 " fill-opacity="0.8" fill-rule="nonzero"/><path fill="#ffffff" d="M 175.820312 70.003906 C 175.050781 70.015625 175.050781 68.8125 175.820312 68.824219 C 176.585938 68.8125 176.585938 70.015625 175.820312 70.003906 Z M 175.820312 70.003906 " fill-opacity="1" fill-rule="nonzero"/><path fill="#0086ff" d="M 245.324219 139.9375 C 247.507812 139.90625 247.507812 143.335938 245.324219 143.304688 C 243.144531 143.335938 243.144531 139.902344 245.324219 139.9375 Z M 245.324219 139.9375 " fill-opacity="0.2" fill-rule="nonzero"/><path fill="#0086ff" d="M 245.324219 142.945312 C 243.609375 142.96875 243.609375 140.273438 245.324219 140.296875 C 247.039062 140.273438 247.039062 142.96875 245.324219 142.945312 Z M 245.324219 142.945312 " fill-opacity="0.4" fill-rule="nonzero"/><path fill="#0086ff" d="M 245.324219 142.582031 C 244.074219 142.601562 244.074219 140.636719 245.324219 140.652344 C 246.574219 140.636719 246.574219 142.601562 245.324219 142.582031 Z M 245.324219 142.582031 " fill-opacity="0.6" fill-rule="nonzero"/><path fill="#0086ff" d="M 245.324219 142.222656 C 244.542969 142.234375 244.542969 141.003906 245.324219 141.015625 C 246.109375 141.003906 246.109375 142.234375 245.324219 142.222656 Z M 245.324219 142.222656 " fill-opacity="0.8" fill-rule="nonzero"/><path fill="#ffffff" d="M 245.324219 141.863281 C 245.007812 141.871094 245.007812 141.371094 245.324219 141.375 C 245.640625 141.371094 245.640625 141.871094 245.324219 141.863281 Z M 245.324219 141.863281 " fill-opacity="1" fill-rule="nonzero"/><path fill="#0086ff" d="M 217.507812 172.148438 C 221.175781 172.164062 221.175781 177.746094 217.507812 177.761719 C 213.84375 177.746094 213.84375 172.167969 217.507812 172.148438 Z M 217.507812 172.148438 " fill-opacity="0.2" fill-rule="nonzero"/><path fill="#0086ff" d="M 217.507812 177.164062 C 214.648438 177.203125 214.648438 172.707031 217.507812 172.75 C 220.371094 172.707031 220.371094 177.203125 217.507812 177.164062 Z M 217.507812 177.164062 " fill-opacity="0.4" fill-rule="nonzero"/><path fill="#0086ff" d="M 217.507812 176.5625 C 215.425781 176.589844 215.425781 173.316406 217.507812 173.347656 C 219.59375 173.316406 219.59375 176.589844 217.507812 176.5625 Z M 217.507812 176.5625 " fill-opacity="0.6" fill-rule="nonzero"/><path fill="#0086ff" d="M 217.507812 175.960938 C 216.203125 175.980469 216.203125 173.929688 217.507812 173.945312 C 218.8125 173.929688 218.8125 175.980469 217.507812 175.960938 Z M 217.507812 175.960938 " fill-opacity="0.8" fill-rule="nonzero"/><path fill="#ffffff" d="M 217.507812 175.363281 C 216.980469 175.371094 216.980469 174.542969 217.507812 174.546875 C 218.039062 174.542969 218.039062 175.371094 217.507812 175.363281 Z M 217.507812 175.363281 " fill-opacity="1" fill-rule="nonzero"/><path fill="#0086ff" d="M 190.152344 119.355469 C 193.820312 119.371094 193.820312 124.949219 190.152344 124.96875 C 186.488281 124.953125 186.488281 119.371094 190.152344 119.355469 Z M 190.152344 119.355469 " fill-opacity="0.2" fill-rule="nonzero"/><path fill="#0086ff" d="M 190.152344 124.367188 C 187.292969 124.40625 187.292969 119.914062 190.152344 119.953125 C 193.015625 119.914062 193.015625 124.40625 190.152344 124.367188 Z M 190.152344 124.367188 " fill-opacity="0.4" fill-rule="nonzero"/><path fill="#0086ff" d="M 190.152344 123.769531 C 188.070312 123.796875 188.070312 120.523438 190.152344 120.554688 C 192.238281 120.523438 192.238281 123.796875 190.152344 123.769531 Z M 190.152344 123.769531 " fill-opacity="0.6" fill-rule="nonzero"/><path fill="#0086ff" d="M 190.152344 123.171875 C 188.847656 123.1875 188.851562 121.140625 190.152344 121.15625 C 191.457031 121.140625 191.457031 123.1875 190.152344 123.171875 Z M 190.152344 123.171875 " fill-opacity="0.8" fill-rule="nonzero"/><path fill="#ffffff" d="M 190.152344 122.570312 C 189.625 122.578125 189.625 121.75 190.152344 121.753906 C 190.683594 121.75 190.683594 122.578125 190.152344 122.570312 Z M 190.152344 122.570312 " fill-opacity="1" fill-rule="nonzero"/><path fill="#0086ff" d="M 208.308594 105.355469 C 210.046875 105.332031 210.046875 108.0625 208.308594 108.035156 C 206.570312 108.0625 206.570312 105.328125 208.308594 105.355469 Z M 208.308594 105.355469 " fill-opacity="0.2" fill-rule="nonzero"/><path fill="#0086ff" d="M 208.308594 107.75 C 206.945312 107.765625 206.941406 105.625 208.308594 105.640625 C 209.671875 105.625 209.671875 107.765625 208.308594 107.75 Z M 208.308594 107.75 " fill-opacity="0.4" fill-rule="nonzero"/><path fill="#0086ff" d="M 208.308594 107.464844 C 207.316406 107.476562 207.316406 105.914062 208.308594 105.925781 C 209.304688 105.914062 209.304688 107.476562 208.308594 107.464844 Z M 208.308594 107.464844 " fill-opacity="0.6" fill-rule="nonzero"/><path fill="#0086ff" d="M 208.308594 107.175781 C 207.683594 107.1875 207.683594 106.203125 208.308594 106.214844 C 208.933594 106.203125 208.933594 107.1875 208.308594 107.175781 Z M 208.308594 107.175781 " fill-opacity="0.8" fill-rule="nonzero"/><path fill="#ffffff" d="M 208.308594 106.890625 C 208.054688 106.894531 208.054688 106.5 208.308594 106.503906 C 208.5625 106.5 208.5625 106.894531 208.308594 106.890625 Z M 208.308594 106.890625 " fill-opacity="1" fill-rule="nonzero"/><path fill="#0086ff" d="M 255.390625 124.644531 C 257.796875 124.609375 257.796875 128.394531 255.390625 128.359375 C 252.980469 128.394531 252.980469 124.609375 255.390625 124.644531 Z M 255.390625 124.644531 " fill-opacity="0.2" fill-rule="nonzero"/><path fill="#0086ff" d="M 255.390625 127.964844 C 253.496094 127.988281 253.496094 125.015625 255.390625 125.039062 C 257.28125 125.015625 257.28125 127.988281 255.390625 127.964844 Z M 255.390625 127.964844 " fill-opacity="0.4" fill-rule="nonzero"/><path fill="#0086ff" d="M 255.390625 127.566406 C 254.011719 127.585938 254.011719 125.421875 255.390625 125.441406 C 256.765625 125.417969 256.765625 127.585938 255.390625 127.566406 Z M 255.390625 127.566406 " fill-opacity="0.6" fill-rule="nonzero"/><path fill="#0086ff" d="M 255.390625 127.171875 C 254.523438 127.183594 254.523438 125.824219 255.390625 125.835938 C 256.253906 125.824219 256.253906 127.183594 255.390625 127.171875 Z M 255.390625 127.171875 " fill-opacity="0.8" fill-rule="nonzero"/><path fill="#ffffff" d="M 255.390625 126.773438 C 255.039062 126.777344 255.039062 126.230469 255.390625 126.234375 C 255.738281 126.226562 255.738281 126.777344 255.390625 126.773438 Z M 255.390625 126.773438 " fill-opacity="1" fill-rule="nonzero"/><path fill="#fe2860" d="M 215.988281 187.613281 C 223.609375 187.746094 223.605469 199.085938 215.988281 199.21875 C 208.367188 199.085938 208.367188 187.746094 215.988281 187.613281 Z M 215.988281 187.613281 " fill-opacity="0.2" fill-rule="nonzero"/><path fill="#fe2860" d="M 215.988281 197.535156 C 210.578125 197.4375 210.582031 189.394531 215.988281 189.296875 C 221.398438 189.394531 221.394531 197.4375 215.988281 197.535156 Z M 215.988281 197.535156 " fill-opacity="0.4" fill-rule="nonzero"/><path fill="#fe2860" d="M 215.988281 195.851562 C 212.804688 195.835938 212.804688 190.996094 215.988281 190.976562 C 219.167969 190.992188 219.167969 195.832031 215.988281 195.851562 Z M 215.988281 195.851562 " fill-opacity="0.6" fill-rule="nonzero"/><path fill="#ffffff" d="M 215.988281 194.167969 C 215.011719 194.179688 215.011719 192.648438 215.988281 192.660156 C 216.960938 192.648438 216.960938 194.179688 215.988281 194.167969 Z M 215.988281 194.167969 " fill-opacity="1" fill-rule="nonzero"/><path fill="#fe2860" d="M 202.726562 180.179688 C 206.375 180.195312 206.375 185.75 202.726562 185.765625 C 199.078125 185.75 199.078125 180.195312 202.726562 180.179688 Z M 202.726562 180.179688 " fill-opacity="0.2" fill-rule="nonzero"/><path fill="#fe2860" d="M 202.726562 184.953125 C 200.15625 184.988281 200.15625 180.953125 202.726562 180.988281 C 205.296875 180.953125 205.296875 184.988281 202.726562 184.953125 Z M 202.726562 184.953125 " fill-opacity="0.4" fill-rule="nonzero"/><path fill="#fe2860" d="M 202.726562 184.140625 C 201.207031 184.164062 201.207031 181.777344 202.726562 181.796875 C 204.246094 181.777344 204.246094 184.164062 202.726562 184.140625 Z M 202.726562 184.140625 " fill-opacity="0.6" fill-rule="nonzero"/><path fill="#ffffff" d="M 202.726562 183.332031 C 202.257812 183.335938 202.257812 182.601562 202.726562 182.605469 C 203.195312 182.601562 203.195312 183.335938 202.726562 183.332031 Z M 202.726562 183.332031 " fill-opacity="1" fill-rule="nonzero"/><g fill="#97e4ff" fill-opacity="1"><g transform="translate(141.772599, 285.184338)"><g><path d="M 27.023438 -28.257812 L 23.972656 -28.257812 C 23.664062 -28.257812 23.011719 -28.15625 23.011719 -27.058594 L 23.011719 -6.449219 C 23.011719 -6.414062 23.011719 -6.414062 23.011719 -6.378906 L 22.839844 -6.378906 C 22.804688 -6.378906 22.769531 -6.378906 22.738281 -6.480469 L 11.898438 -25.753906 C 11.625 -26.269531 11.386719 -26.679688 11.144531 -26.988281 C 10.90625 -27.332031 10.664062 -27.605469 10.425781 -27.777344 C 10.152344 -27.984375 9.84375 -28.121094 9.464844 -28.191406 C 9.121094 -28.222656 8.710938 -28.257812 8.265625 -28.257812 L 5.691406 -28.257812 C 4.699219 -28.257812 3.945312 -27.914062 3.464844 -27.296875 C 2.984375 -26.648438 2.742188 -25.515625 2.742188 -23.835938 L 2.742188 -1.164062 C 2.742188 -0.101562 3.429688 0.0351562 3.738281 0.0351562 L 6.789062 0.0351562 C 7.097656 0.0351562 7.75 -0.101562 7.75 -1.164062 L 7.75 -21.777344 C 7.75 -21.8125 7.75 -21.84375 7.75 -21.84375 L 7.921875 -21.84375 C 7.921875 -21.84375 7.957031 -21.84375 8.023438 -21.742188 L 18.894531 -2.46875 C 19.171875 -1.921875 19.445312 -1.507812 19.683594 -1.199219 C 19.925781 -0.855469 20.164062 -0.617188 20.4375 -0.445312 C 20.714844 -0.238281 21.023438 -0.136719 21.367188 -0.0703125 C 21.675781 0 22.050781 0.0351562 22.53125 0.0351562 L 25.035156 0.0351562 C 26.03125 0.0351562 26.785156 -0.308594 27.265625 -0.960938 C 27.742188 -1.578125 27.984375 -2.710938 27.984375 -4.390625 L 27.984375 -27.058594 C 27.984375 -28.15625 27.296875 -28.257812 27.023438 -28.257812 Z M 27.023438 -28.257812 "/></g></g></g><g fill="#97e4ff" fill-opacity="1"><g transform="translate(170.780232, 285.184338)"><g><path d="M 30.074219 -28.636719 L 26.304688 -28.636719 C 25.859375 -28.636719 25.515625 -28.394531 25.308594 -27.914062 L 16.90625 -6.6875 C 16.90625 -6.617188 16.871094 -6.617188 16.871094 -6.617188 L 16.734375 -6.585938 C 16.734375 -6.585938 16.734375 -6.617188 16.703125 -6.6875 L 8.160156 -27.914062 C 8.023438 -28.394531 7.683594 -28.636719 7.203125 -28.636719 L 3.496094 -28.636719 C 2.984375 -28.636719 2.8125 -28.292969 2.777344 -28.15625 C 2.710938 -27.914062 2.742188 -27.640625 2.878906 -27.296875 L 12.484375 -3.566406 C 12.585938 -3.359375 12.65625 -3.1875 12.722656 -3.050781 C 13.238281 -1.234375 14.917969 0.0351562 16.804688 0.0351562 C 17.660156 0.0351562 18.484375 -0.238281 19.171875 -0.71875 C 19.375 -0.824219 19.546875 -0.925781 19.683594 -1.0625 C 20.199219 -1.507812 20.679688 -2.332031 21.195312 -3.566406 L 30.726562 -27.296875 C 30.863281 -27.640625 30.898438 -27.914062 30.832031 -28.15625 C 30.761719 -28.328125 30.589844 -28.636719 30.074219 -28.636719 Z M 30.074219 -28.636719 "/></g></g></g><g fill="#97e4ff" fill-opacity="1"><g transform="translate(202.668193, 285.184338)"><g><path d="M 19.546875 -28.257812 L 3.703125 -28.257812 C 3.429688 -28.257812 2.742188 -28.15625 2.742188 -27.058594 L 2.742188 -24.347656 C 2.742188 -23.285156 3.429688 -23.183594 3.703125 -23.183594 L 18.65625 -23.183594 C 19.511719 -23.183594 20.128906 -22.941406 20.472656 -22.429688 C 20.851562 -21.914062 21.023438 -21.089844 21.023438 -19.960938 C 21.023438 -18.828125 20.851562 -18.003906 20.472656 -17.488281 C 20.128906 -16.976562 19.511719 -16.734375 18.65625 -16.734375 L 3.703125 -16.734375 C 3.429688 -16.734375 2.742188 -16.632812 2.742188 -15.570312 L 2.742188 -1.164062 C 2.742188 -0.101562 3.429688 0.0351562 3.703125 0.0351562 L 6.859375 0.0351562 C 7.132812 0.0351562 7.820312 -0.101562 7.820312 -1.164062 L 7.820312 -11.660156 L 19.546875 -11.695312 C 21.878906 -11.695312 23.558594 -12.414062 24.589844 -13.855469 C 25.617188 -15.296875 26.097656 -17.351562 26.097656 -20.0625 L 26.097656 -19.855469 C 26.097656 -22.601562 25.617188 -24.65625 24.589844 -26.0625 C 23.558594 -27.539062 21.878906 -28.257812 19.546875 -28.257812 Z M 19.546875 -28.257812 "/></g></g></g><g fill="#f4f6fc" fill-opacity="1"><g transform="translate(178.071372, 305.151981)"><g><path d="M 10.265625 -1.09375 C 10.304688 -0.96875 10.328125 -0.859375 10.328125 -0.765625 C 10.328125 -0.554688 10.253906 -0.375 10.109375 -0.21875 C 9.960938 -0.0703125 9.78125 0 9.5625 0 C 9.40625 0 9.257812 -0.0390625 9.125 -0.125 C 8.988281 -0.207031 8.890625 -0.328125 8.828125 -0.484375 L 8 -2.578125 L 2.609375 -2.578125 L 1.75 -0.484375 C 1.6875 -0.328125 1.585938 -0.207031 1.453125 -0.125 C 1.328125 -0.0390625 1.1875 0 1.03125 0 C 0.8125 0 0.628906 -0.078125 0.484375 -0.234375 C 0.335938 -0.390625 0.265625 -0.570312 0.265625 -0.78125 C 0.265625 -0.882812 0.289062 -1 0.34375 -1.125 L 4.5625 -11.1875 C 4.707031 -11.539062 4.953125 -11.71875 5.296875 -11.71875 C 5.648438 -11.71875 5.894531 -11.539062 6.03125 -11.1875 Z M 3.140625 -3.875 L 7.46875 -3.875 L 5.328125 -9.203125 Z M 3.140625 -3.875 "/></g></g></g><g fill="#f4f6fc" fill-opacity="1"><g transform="translate(192.366357, 305.151981)"><g><path d="M 2.28125 0 C 2.0625 0 1.875 -0.0703125 1.71875 -0.21875 C 1.570312 -0.375 1.5 -0.5625 1.5 -0.78125 L 1.5 -10.9375 C 1.5 -11.164062 1.570312 -11.351562 1.71875 -11.5 C 1.875 -11.644531 2.0625 -11.71875 2.28125 -11.71875 C 2.507812 -11.71875 2.695312 -11.644531 2.84375 -11.5 C 2.988281 -11.351562 3.0625 -11.164062 3.0625 -10.9375 L 3.0625 -0.78125 C 3.0625 -0.5625 2.988281 -0.375 2.84375 -0.21875 C 2.695312 -0.0703125 2.507812 0 2.28125 0 Z M 2.28125 0 "/></g></g></g></svg>